<?xml version="1.0" standalone="no"?>
<!DOCTYPE svg PUBLIC "-//W3C//DTD SVG 20010904//EN"
 "http://www.w3.org/TR/2001/REC-SVG-20010904/DTD/svg10.dtd">
<svg version="1.0" xmlns="http://www.w3.org/2000/svg"
 width="327.000000pt" height="327.000000pt" viewBox="0 0 327.000000 327.000000"
 preserveAspectRatio="xMidYMid meet">
<metadata>
Created by potrace 1.14, written by Peter Selinger 2001-2017
</metadata>
<g transform="translate(0.000000,327.000000) scale(0.100000,-0.100000)"
fill="#000000" stroke="none">
<path d="M1185 3249 c-28 -13 -53 -38 -82 -81 -89 -134 -122 -237 -157 -488
-15 -102 -33 -214 -41 -250 -17 -77 -25 -132 -40 -280 -37 -387 -49 -1170 -20
-1393 3 -18 7 -57 10 -87 11 -99 45 -250 74 -329 67 -182 165 -280 324 -322
83 -21 129 -18 272 21 61 17 117 32 125 34 36 10 198 66 235 81 155 65 267
131 346 202 82 73 189 268 207 376 9 55 8 193 -1 236 -11 47 -45 126 -84 191
-40 67 -177 217 -238 261 -25 18 -45 35 -45 39 0 3 24 26 53 50 157 131 270
401 312 743 12 102 5 247 -17 332 -5 22 -12 49 -14 60 -2 11 -18 55 -35 98
-41 102 -77 132 -160 132 -43 0 -65 -5 -85 -21 -16 -11 -82 -94 -148 -184 -66
-90 -121 -159 -122 -154 -9 44 -52 170 -74 219 -53 117 -158 261 -264 358 -59
55 -167 142 -195 156 -37 20 -93 20 -136 0z m312 -519 c79 -118 132 -300 128
-446 -1 -73 -5 -86 -37 -140 -20 -32 -66 -113 -102 -179 -54 -99 -66 -115 -66
-90 -1 17 -3 66 -5 110 -5 113 -5 587 0 665 2 36 4 91 5 123 l0 59 23 -29 c13
-15 37 -48 54 -73z m690 -412 c-16 -240 -107 -504 -208 -599 -84 -80 -208
-169 -241 -173 -18 -3 -54 -8 -80 -11 l-48 -6 46 88 c163 313 223 409 383 616
80 103 147 187 150 187 2 0 1 -46 -2 -102z m-513 -1213 c37 -40 114 -206 126
-274 11 -60 12 -244 2 -283 -7 -26 -103 -68 -162 -69 -45 -2 -133 31 -147 54
-3 5 -5 108 -4 230 1 231 1 231 49 285 24 28 93 81 105 82 4 0 18 -11 31 -25z"/>
</g>
</svg>
